<svg width="38" height="33" viewBox="0 0 38 33" fill="none" xmlns="http://www.w3.org/2000/svg">
<g clip-path="url(#clip0_39_114)">
<path d="M21.817 8.18505C26.3131 8.18505 29.9713 11.9146 29.9713 16.4982C29.9713 21.0819 26.3131 24.8114 21.817 24.8114C17.321 24.8114 13.6627 21.0819 13.6627 16.4982C13.6627 11.9146 17.321 8.18505 21.817 8.18505ZM21.817 0C12.8773 0 5.63403 7.3879 5.63403 16.4982C5.63403 25.6085 12.8808 32.9964 21.817 32.9964C30.7533 32.9964 38 25.6085 38 16.4982C38 7.3879 30.7533 0 21.817 0Z" fill="#9838FF"/>
<path d="M26.0582 19.0356C28.7881 19.0356 31.0011 16.7795 31.0011 13.9965C31.0011 11.2134 28.7881 8.95731 26.0582 8.95731C23.3284 8.95731 21.1154 11.2134 21.1154 13.9965C21.1154 16.7795 23.3284 19.0356 26.0582 19.0356Z" fill="#9838FF"/>
<path d="M8.58369 7L0 19.8576H12.0325L8.58369 7Z" fill="#9838FF"/>
</g>
<defs>
<clipPath id="clip0_39_114">
<rect width="38" height="33" fill="white"/>
</clipPath>
</defs>
</svg>
