<svg width="205" height="35" viewBox="0 0 205 35" fill="none" xmlns="http://www.w3.org/2000/svg">
<g clip-path="url(#clip0_65_130)">
<path d="M21.817 10.1851C26.3131 10.1851 29.9713 13.9146 29.9713 18.4982C29.9713 23.0819 26.3131 26.8114 21.817 26.8114C17.321 26.8114 13.6627 23.0819 13.6627 18.4982C13.6627 13.9146 17.321 10.1851 21.817 10.1851ZM21.817 2C12.8773 2 5.63403 9.3879 5.63403 18.4982C5.63403 27.6085 12.8808 34.9964 21.817 34.9964C30.7533 34.9964 38 27.6085 38 18.4982C38 9.3879 30.7533 2 21.817 2Z" fill="#9838FF"/>
<path d="M26.0582 21.0356C28.7881 21.0356 31.0011 18.7795 31.0011 15.9964C31.0011 13.2134 28.7881 10.9573 26.0582 10.9573C23.3284 10.9573 21.1154 13.2134 21.1154 15.9964C21.1154 18.7795 23.3284 21.0356 26.0582 21.0356Z" fill="#9838FF"/>
<path d="M8.58369 9L0 21.8576H12.0325L8.58369 9Z" fill="#9838FF"/>
</g>
<mask id="path-4-outside-1_65_130" maskUnits="userSpaceOnUse" x="62" y="8" width="128" height="23" fill="black">
<rect fill="white" x="62" y="8" width="128" height="23"/>
<path d="M62.666 9.09668H70.957C71.4062 9.09668 71.8604 9.13086 72.3193 9.19922C72.7783 9.26758 73.2178 9.39941 73.6377 9.59473C74.0576 9.78027 74.4482 10.0342 74.8096 10.3564C75.1709 10.6787 75.4883 11.0937 75.7617 11.6016C76.0352 12.0996 76.2451 12.7051 76.3916 13.418C76.5479 14.1309 76.626 14.9658 76.626 15.9229C76.626 16.8799 76.543 17.7148 76.377 18.4277C76.2109 19.1309 75.9863 19.7314 75.7031 20.2295C75.4199 20.7275 75.0879 21.1328 74.707 21.4453C74.3262 21.7578 73.9209 22.0068 73.4912 22.1924C73.0615 22.3682 72.6172 22.4902 72.1582 22.5586C71.709 22.6172 71.2646 22.6465 70.8252 22.6465H66.1816V30H62.666V9.09668ZM70.415 19.3799C70.9424 19.3799 71.3672 19.292 71.6895 19.1162C72.0215 18.9404 72.2803 18.6963 72.4658 18.3838C72.6611 18.0713 72.793 17.7051 72.8613 17.2852C72.9297 16.8652 72.9639 16.4111 72.9639 15.9229C72.9639 15.4443 72.9297 14.9902 72.8613 14.5605C72.793 14.1309 72.6611 13.7549 72.4658 13.4326C72.2803 13.1006 72.0215 12.8418 71.6895 12.6562C71.3672 12.4609 70.9424 12.3633 70.415 12.3633H66.1816V19.3799H70.415ZM84.6785 9.09668H88.1941V26.7334H96.8367V30H84.6785V9.09668ZM111.964 30.4541C111.066 30.4541 110.231 30.3906 109.46 30.2637C108.688 30.1367 107.985 29.917 107.35 29.6045C106.715 29.2822 106.149 28.8574 105.651 28.3301C105.163 27.8027 104.748 27.1387 104.406 26.3379C104.064 25.5273 103.805 24.5703 103.629 23.4668C103.454 22.3633 103.366 21.0791 103.366 19.6143C103.366 17.417 103.561 15.6104 103.952 14.1943C104.342 12.7783 104.909 11.665 105.651 10.8545C106.393 10.0342 107.296 9.46777 108.361 9.15527C109.425 8.83301 110.627 8.67188 111.964 8.67188C112.853 8.67188 113.683 8.74023 114.455 8.87695C115.226 9.01367 115.929 9.24316 116.564 9.56543C117.199 9.8877 117.76 10.3223 118.249 10.8691C118.737 11.4063 119.147 12.0801 119.479 12.8906C119.821 13.7012 120.08 14.6631 120.255 15.7764C120.431 16.8799 120.519 18.1592 120.519 19.6143C120.519 21.0693 120.431 22.3486 120.255 23.4521C120.08 24.5557 119.821 25.5127 119.479 26.3232C119.147 27.124 118.737 27.793 118.249 28.3301C117.76 28.8574 117.199 29.2773 116.564 29.5898C115.929 29.9023 115.226 30.1221 114.455 30.249C113.683 30.3857 112.853 30.4541 111.964 30.4541ZM111.964 27.2168C112.921 27.2168 113.713 27.1045 114.338 26.8799C114.972 26.6553 115.475 26.2598 115.846 25.6934C116.217 25.1172 116.476 24.3408 116.623 23.3643C116.779 22.3779 116.857 21.1279 116.857 19.6143C116.857 18.0908 116.779 16.8359 116.623 15.8496C116.476 14.8633 116.217 14.082 115.846 13.5059C115.475 12.9199 114.972 12.5146 114.338 12.29C113.713 12.0557 112.921 11.9385 111.964 11.9385C111.007 11.9385 110.212 12.0557 109.577 12.29C108.942 12.5146 108.439 12.9199 108.068 13.5059C107.697 14.082 107.433 14.8633 107.277 15.8496C107.13 16.8359 107.057 18.0908 107.057 19.6143C107.057 21.1279 107.13 22.3779 107.277 23.3643C107.433 24.3408 107.697 25.1172 108.068 25.6934C108.439 26.2598 108.942 26.6553 109.577 26.8799C110.212 27.1045 111.007 27.2168 111.964 27.2168ZM133.494 30L126.418 9.09668H130.432L136.145 26.7334H136.379L142.078 9.09668H146.091L139.016 30H133.494ZM152.972 9.09668H165.54V12.3633H156.488V17.8564H164.075V21.0645H156.488V26.7334H165.789V30H152.972V9.09668ZM174.018 9.09668H181.796C182.353 9.09668 182.895 9.13574 183.422 9.21387C183.959 9.28223 184.462 9.40918 184.931 9.59473C185.409 9.78027 185.844 10.0342 186.234 10.3564C186.625 10.6689 186.962 11.0742 187.245 11.5723C187.538 12.0703 187.763 12.666 187.919 13.3594C188.075 14.0527 188.153 14.8682 188.153 15.8057C188.153 16.4307 188.1 16.9922 187.992 17.4902C187.895 17.9785 187.758 18.4131 187.582 18.7939C187.416 19.1748 187.221 19.5068 186.996 19.79C186.781 20.0732 186.562 20.3174 186.337 20.5225C185.8 20.9912 185.194 21.3184 184.521 21.5039V21.5332L188.93 30H184.916L181.005 22.3242H177.533V30H174.018V9.09668ZM181.767 19.0137C183.603 19.0137 184.521 17.876 184.521 15.6006C184.521 15.0049 184.452 14.502 184.315 14.0918C184.188 13.6719 183.998 13.335 183.744 13.0811C183.5 12.8271 183.202 12.6465 182.851 12.5391C182.499 12.4219 182.108 12.3633 181.679 12.3633H177.533V19.0137H181.767Z"/>
</mask>
<path d="M62.666 9.09668H70.957C71.4062 9.09668 71.8604 9.13086 72.3193 9.19922C72.7783 9.26758 73.2178 9.39941 73.6377 9.59473C74.0576 9.78027 74.4482 10.0342 74.8096 10.3564C75.1709 10.6787 75.4883 11.0937 75.7617 11.6016C76.0352 12.0996 76.2451 12.7051 76.3916 13.418C76.5479 14.1309 76.626 14.9658 76.626 15.9229C76.626 16.8799 76.543 17.7148 76.377 18.4277C76.2109 19.1309 75.9863 19.7314 75.7031 20.2295C75.4199 20.7275 75.0879 21.1328 74.707 21.4453C74.3262 21.7578 73.9209 22.0068 73.4912 22.1924C73.0615 22.3682 72.6172 22.4902 72.1582 22.5586C71.709 22.6172 71.2646 22.6465 70.8252 22.6465H66.1816V30H62.666V9.09668ZM70.415 19.3799C70.9424 19.3799 71.3672 19.292 71.6895 19.1162C72.0215 18.9404 72.2803 18.6963 72.4658 18.3838C72.6611 18.0713 72.793 17.7051 72.8613 17.2852C72.9297 16.8652 72.9639 16.4111 72.9639 15.9229C72.9639 15.4443 72.9297 14.9902 72.8613 14.5605C72.793 14.1309 72.6611 13.7549 72.4658 13.4326C72.2803 13.1006 72.0215 12.8418 71.6895 12.6562C71.3672 12.4609 70.9424 12.3633 70.415 12.3633H66.1816V19.3799H70.415ZM84.6785 9.09668H88.1941V26.7334H96.8367V30H84.6785V9.09668ZM111.964 30.4541C111.066 30.4541 110.231 30.3906 109.46 30.2637C108.688 30.1367 107.985 29.917 107.35 29.6045C106.715 29.2822 106.149 28.8574 105.651 28.3301C105.163 27.8027 104.748 27.1387 104.406 26.3379C104.064 25.5273 103.805 24.5703 103.629 23.4668C103.454 22.3633 103.366 21.0791 103.366 19.6143C103.366 17.417 103.561 15.6104 103.952 14.1943C104.342 12.7783 104.909 11.665 105.651 10.8545C106.393 10.0342 107.296 9.46777 108.361 9.15527C109.425 8.83301 110.627 8.67188 111.964 8.67188C112.853 8.67188 113.683 8.74023 114.455 8.87695C115.226 9.01367 115.929 9.24316 116.564 9.56543C117.199 9.8877 117.76 10.3223 118.249 10.8691C118.737 11.4063 119.147 12.0801 119.479 12.8906C119.821 13.7012 120.08 14.6631 120.255 15.7764C120.431 16.8799 120.519 18.1592 120.519 19.6143C120.519 21.0693 120.431 22.3486 120.255 23.4521C120.08 24.5557 119.821 25.5127 119.479 26.3232C119.147 27.124 118.737 27.793 118.249 28.3301C117.76 28.8574 117.199 29.2773 116.564 29.5898C115.929 29.9023 115.226 30.1221 114.455 30.249C113.683 30.3857 112.853 30.4541 111.964 30.4541ZM111.964 27.2168C112.921 27.2168 113.713 27.1045 114.338 26.8799C114.972 26.6553 115.475 26.2598 115.846 25.6934C116.217 25.1172 116.476 24.3408 116.623 23.3643C116.779 22.3779 116.857 21.1279 116.857 19.6143C116.857 18.0908 116.779 16.8359 116.623 15.8496C116.476 14.8633 116.217 14.082 115.846 13.5059C115.475 12.9199 114.972 12.5146 114.338 12.29C113.713 12.0557 112.921 11.9385 111.964 11.9385C111.007 11.9385 110.212 12.0557 109.577 12.29C108.942 12.5146 108.439 12.9199 108.068 13.5059C107.697 14.082 107.433 14.8633 107.277 15.8496C107.13 16.8359 107.057 18.0908 107.057 19.6143C107.057 21.1279 107.13 22.3779 107.277 23.3643C107.433 24.3408 107.697 25.1172 108.068 25.6934C108.439 26.2598 108.942 26.6553 109.577 26.8799C110.212 27.1045 111.007 27.2168 111.964 27.2168ZM133.494 30L126.418 9.09668H130.432L136.145 26.7334H136.379L142.078 9.09668H146.091L139.016 30H133.494ZM152.972 9.09668H165.54V12.3633H156.488V17.8564H164.075V21.0645H156.488V26.7334H165.789V30H152.972V9.09668ZM174.018 9.09668H181.796C182.353 9.09668 182.895 9.13574 183.422 9.21387C183.959 9.28223 184.462 9.40918 184.931 9.59473C185.409 9.78027 185.844 10.0342 186.234 10.3564C186.625 10.6689 186.962 11.0742 187.245 11.5723C187.538 12.0703 187.763 12.666 187.919 13.3594C188.075 14.0527 188.153 14.8682 188.153 15.8057C188.153 16.4307 188.1 16.9922 187.992 17.4902C187.895 17.9785 187.758 18.4131 187.582 18.7939C187.416 19.1748 187.221 19.5068 186.996 19.79C186.781 20.0732 186.562 20.3174 186.337 20.5225C185.8 20.9912 185.194 21.3184 184.521 21.5039V21.5332L188.93 30H184.916L181.005 22.3242H177.533V30H174.018V9.09668ZM181.767 19.0137C183.603 19.0137 184.521 17.876 184.521 15.6006C184.521 15.0049 184.452 14.502 184.315 14.0918C184.188 13.6719 183.998 13.335 183.744 13.0811C183.5 12.8271 183.202 12.6465 182.851 12.5391C182.499 12.4219 182.108 12.3633 181.679 12.3633H177.533V19.0137H181.767Z" fill="white"/>
<path d="M62.666 9.09668V8.59668H62.166V9.09668H62.666ZM73.6377 9.59473L73.4268 10.0482L73.4356 10.0521L73.6377 9.59473ZM74.8096 10.3564L74.4768 10.7296L74.8096 10.3564ZM75.7617 11.6016L75.3215 11.8386L75.3234 11.8422L75.7617 11.6016ZM76.3916 13.418L75.9018 13.5186L75.9032 13.525L76.3916 13.418ZM76.377 18.4277L76.8636 18.5426L76.8639 18.5411L76.377 18.4277ZM73.4912 22.1924L73.6806 22.6552L73.6894 22.6514L73.4912 22.1924ZM72.1582 22.5586L72.2229 23.0545L72.2319 23.0531L72.1582 22.5586ZM66.1816 22.6465V22.1465H65.6816V22.6465H66.1816ZM66.1816 30V30.5H66.6816V30H66.1816ZM62.666 30H62.166V30.5H62.666V30ZM71.6895 19.1162L71.4555 18.6743L71.45 18.6773L71.6895 19.1162ZM72.4658 18.3838L72.0417 18.1187L72.0359 18.1285L72.4658 18.3838ZM72.4658 13.4326L72.0293 13.6765L72.0337 13.6842L72.0382 13.6918L72.4658 13.4326ZM71.6895 12.6562L71.4303 13.0838L71.4378 13.0884L71.4455 13.0927L71.6895 12.6562ZM66.1816 12.3633V11.8633H65.6816V12.3633H66.1816ZM66.1816 19.3799H65.6816V19.8799H66.1816V19.3799ZM62.666 9.09668V9.59668H70.957V9.09668V8.59668H62.666V9.09668ZM70.957 9.09668V9.59668C71.3808 9.59668 71.8103 9.62892 72.2457 9.69376L72.3193 9.19922L72.393 8.70467C71.9104 8.6328 71.4317 8.59668 70.957 8.59668V9.09668ZM72.3193 9.19922L72.2457 9.69376C72.6573 9.75507 73.0505 9.87306 73.4268 10.0481L73.6377 9.59473L73.8486 9.14137C73.385 8.92577 72.8994 8.78009 72.393 8.70467L72.3193 9.19922ZM73.6377 9.59473L73.4356 10.0521C73.8053 10.2154 74.1522 10.4401 74.4768 10.7296L74.8096 10.3564L75.1424 9.9833C74.7443 9.62823 74.3099 9.34513 73.8398 9.13738L73.6377 9.59473ZM74.8096 10.3564L74.4768 10.7296C74.7872 11.0065 75.0705 11.3725 75.3215 11.8386L75.7617 11.6016L76.202 11.3645C75.9061 10.815 75.5546 10.3509 75.1424 9.9833L74.8096 10.3564ZM75.7617 11.6016L75.3234 11.8422C75.5671 12.2861 75.7627 12.8417 75.9018 13.5186L76.3916 13.418L76.8814 13.3173C76.7275 12.5685 76.5032 11.9131 76.2 11.3609L75.7617 11.6016ZM76.3916 13.418L75.9032 13.525C76.0498 14.1938 76.126 14.9914 76.126 15.9229H76.626H77.126C77.126 14.9403 77.0459 14.0679 76.88 13.3109L76.3916 13.418ZM76.626 15.9229H76.126C76.126 16.8527 76.0452 17.648 75.89 18.3143L76.377 18.4277L76.8639 18.5411C77.0408 17.7817 77.126 16.9071 77.126 15.9229H76.626ZM76.377 18.4277L75.8903 18.3128C75.7325 18.9811 75.523 19.5348 75.2685 19.9823L75.7031 20.2295L76.1378 20.4766C76.4497 19.9281 76.6893 19.2806 76.8636 18.5426L76.377 18.4277ZM75.7031 20.2295L75.2685 19.9823C75.0107 20.4357 74.7163 20.7909 74.3899 21.0588L74.707 21.4453L75.0242 21.8319C75.4595 21.4747 75.8291 21.0194 76.1378 20.4766L75.7031 20.2295ZM74.707 21.4453L74.3899 21.0588C74.0432 21.3432 73.6776 21.5673 73.293 21.7334L73.4912 22.1924L73.6894 22.6514C74.1642 22.4464 74.6092 22.1724 75.0242 21.8319L74.707 21.4453ZM73.4912 22.1924L73.3019 21.7296C72.9093 21.8902 72.5038 22.0016 72.0845 22.064L72.1582 22.5586L72.2319 23.0531C72.7305 22.9789 73.2137 22.8461 73.6805 22.6552L73.4912 22.1924ZM72.1582 22.5586L72.0935 22.0628C71.6651 22.1187 71.2424 22.1465 70.8252 22.1465V22.6465V23.1465C71.2869 23.1465 71.7529 23.1157 72.2229 23.0544L72.1582 22.5586ZM70.8252 22.6465V22.1465H66.1816V22.6465V23.1465H70.8252V22.6465ZM66.1816 22.6465H65.6816V30H66.1816H66.6816V22.6465H66.1816ZM66.1816 30V29.5H62.666V30V30.5H66.1816V30ZM62.666 30H63.166V9.09668H62.666H62.166V30H62.666ZM70.415 19.3799V19.8799C70.9918 19.8799 71.5081 19.7847 71.9289 19.5552L71.6895 19.1162L71.45 18.6773C71.2263 18.7993 70.8929 18.8799 70.415 18.8799V19.3799ZM71.6895 19.1162L71.9234 19.5581C72.3338 19.3408 72.6616 19.0334 72.8957 18.6391L72.4658 18.3838L72.0359 18.1285C71.8989 18.3592 71.7092 18.54 71.4555 18.6743L71.6895 19.1162ZM72.4658 18.3838L72.8898 18.6488C73.1254 18.2719 73.2774 17.8409 73.3548 17.3655L72.8613 17.2852L72.3678 17.2048C72.3085 17.5692 72.1969 17.8706 72.0418 18.1188L72.4658 18.3838ZM72.8613 17.2852L73.3548 17.3655C73.4281 16.9155 73.4639 16.4342 73.4639 15.9229H72.9639H72.4639C72.4639 16.3881 72.4313 16.815 72.3678 17.2048L72.8613 17.2852ZM72.9639 15.9229H73.4639C73.4639 15.4206 73.428 14.9401 73.3551 14.482L72.8613 14.5605L72.3675 14.6391C72.4314 15.0404 72.4639 15.4681 72.4639 15.9229H72.9639ZM72.8613 14.5605L73.3551 14.482C73.2781 13.9982 73.127 13.559 72.8934 13.1735L72.4658 13.4326L72.0382 13.6918C72.1952 13.9508 72.3078 14.2636 72.3675 14.6391L72.8613 14.5605ZM72.4658 13.4326L72.9023 13.1887C72.6716 12.7759 72.3462 12.4505 71.9334 12.2198L71.6895 12.6562L71.4455 13.0927C71.6968 13.2331 71.8889 13.4253 72.0293 13.6765L72.4658 13.4326ZM71.6895 12.6562L71.9486 12.2287C71.523 11.9707 70.9989 11.8633 70.415 11.8633V12.3633V12.8633C70.8858 12.8633 71.2114 12.9512 71.4303 13.0838L71.6895 12.6562ZM70.415 12.3633V11.8633H66.1816V12.3633V12.8633H70.415V12.3633ZM66.1816 12.3633H65.6816V19.3799H66.1816H66.6816V12.3633H66.1816ZM66.1816 19.3799V19.8799H70.415V19.3799V18.8799H66.1816V19.3799ZM84.6785 9.09668V8.59668H84.1785V9.09668H84.6785ZM88.1941 9.09668H88.6941V8.59668H88.1941V9.09668ZM88.1941 26.7334H87.6941V27.2334H88.1941V26.7334ZM96.8367 26.7334H97.3367V26.2334H96.8367V26.7334ZM96.8367 30V30.5H97.3367V30H96.8367ZM84.6785 30H84.1785V30.5H84.6785V30ZM84.6785 9.09668V9.59668H88.1941V9.09668V8.59668H84.6785V9.09668ZM88.1941 9.09668H87.6941V26.7334H88.1941H88.6941V9.09668H88.1941ZM88.1941 26.7334V27.2334H96.8367V26.7334V26.2334H88.1941V26.7334ZM96.8367 26.7334H96.3367V30H96.8367H97.3367V26.7334H96.8367ZM96.8367 30V29.5H84.6785V30V30.5H96.8367V30ZM84.6785 30H85.1785V9.09668H84.6785H84.1785V30H84.6785ZM107.35 29.6045L107.124 30.0504L107.129 30.0531L107.35 29.6045ZM105.651 28.3301L105.284 28.6698L105.287 28.6734L105.651 28.3301ZM104.406 26.3379L103.945 26.5322L103.946 26.5342L104.406 26.3379ZM105.651 10.8545L106.02 11.1922L106.022 11.1899L105.651 10.8545ZM108.361 9.15527L108.502 9.63504L108.506 9.63382L108.361 9.15527ZM116.564 9.56543L116.79 9.1196L116.564 9.56543ZM118.249 10.8691L117.876 11.2022L117.879 11.2055L118.249 10.8691ZM119.479 12.8906L119.016 13.0802L119.018 13.0849L119.479 12.8906ZM120.255 15.7764L119.762 15.8543L119.762 15.855L120.255 15.7764ZM119.479 26.3232L119.018 26.129L119.017 26.1317L119.479 26.3232ZM118.249 28.3301L118.616 28.6698L118.619 28.6664L118.249 28.3301ZM116.564 29.5898L116.785 30.0384L116.564 29.5898ZM114.455 30.249L114.373 29.7556L114.367 29.7567L114.455 30.249ZM114.338 26.8799L114.171 26.4085L114.168 26.4093L114.338 26.8799ZM115.846 25.6934L116.265 25.9674L116.267 25.9641L115.846 25.6934ZM116.623 23.3643L116.129 23.286L116.128 23.2901L116.623 23.3643ZM116.623 15.8496L116.128 15.9231L116.129 15.9278L116.623 15.8496ZM115.846 13.5059L115.424 13.7734L115.426 13.7766L115.846 13.5059ZM114.338 12.29L114.162 12.7583L114.171 12.7614L114.338 12.29ZM109.577 12.29L109.744 12.7614L109.75 12.7591L109.577 12.29ZM108.068 13.5059L108.488 13.7766L108.49 13.7734L108.068 13.5059ZM107.277 15.8496L106.783 15.7714L106.782 15.7762L107.277 15.8496ZM107.277 23.3643L106.782 23.4377L106.783 23.4433L107.277 23.3643ZM108.068 25.6934L107.648 25.9641L107.65 25.9674L108.068 25.6934ZM111.964 30.4541V29.9541C111.089 29.9541 110.282 29.8923 109.541 29.7703L109.46 30.2637L109.378 30.757C110.18 30.889 111.043 30.9541 111.964 30.9541V30.4541ZM109.46 30.2637L109.541 29.7703C108.813 29.6505 108.157 29.4445 107.571 29.1559L107.35 29.6045L107.129 30.0531C107.813 30.3894 108.563 30.6229 109.378 30.757L109.46 30.2637ZM107.35 29.6045L107.577 29.1587C106.994 28.8629 106.474 28.4731 106.014 27.9868L105.651 28.3301L105.287 28.6734C105.824 29.2417 106.437 29.7015 107.124 30.0503L107.35 29.6045ZM105.651 28.3301L106.018 27.9904C105.576 27.513 105.19 26.9004 104.866 26.1416L104.406 26.3379L103.946 26.5342C104.306 27.3769 104.75 28.0925 105.284 28.6698L105.651 28.3301ZM104.406 26.3379L104.867 26.1436C104.544 25.3785 104.294 24.4621 104.123 23.3881L103.629 23.4668L103.136 23.5455C103.316 24.6786 103.584 25.6762 103.945 26.5322L104.406 26.3379ZM103.629 23.4668L104.123 23.3881C103.953 22.3172 103.866 21.0604 103.866 19.6143H103.366H102.866C102.866 21.0978 102.955 22.4094 103.136 23.5455L103.629 23.4668ZM103.366 19.6143H103.866C103.866 17.442 104.059 15.6843 104.434 14.3273L103.952 14.1943L103.47 14.0614C103.063 15.5364 102.866 17.392 102.866 19.6143H103.366ZM103.952 14.1943L104.434 14.3273C104.81 12.963 105.346 11.9281 106.02 11.1922L105.651 10.8545L105.282 10.5168C104.472 11.402 103.875 12.5937 103.47 14.0614L103.952 14.1943ZM105.651 10.8545L106.022 11.1899C106.702 10.4382 107.526 9.92163 108.502 9.63503L108.361 9.15527L108.22 8.67552C107.067 9.01392 106.084 9.63014 105.28 10.519L105.651 10.8545ZM108.361 9.15527L108.506 9.63382C109.515 9.32832 110.666 9.17188 111.964 9.17188V8.67188V8.17188C110.587 8.17188 109.336 8.3377 108.216 8.67672L108.361 9.15527ZM111.964 8.67188V9.17188C112.828 9.17188 113.628 9.23829 114.367 9.36928L114.455 8.87695L114.542 8.38462C113.738 8.24218 112.879 8.17188 111.964 8.17188V8.67188ZM114.455 8.87695L114.367 9.36928C115.095 9.49828 115.751 9.71336 116.338 10.0113L116.564 9.56543L116.79 9.1196C116.108 8.77296 115.357 8.52907 114.542 8.38462L114.455 8.87695ZM116.564 9.56543L116.338 10.0113C116.915 10.3045 117.428 10.7003 117.876 11.2021L118.249 10.8691L118.622 10.5361C118.093 9.94427 117.482 9.47087 116.79 9.1196L116.564 9.56543ZM118.249 10.8691L117.879 11.2055C118.321 11.6916 118.702 12.3128 119.016 13.0802L119.479 12.8906L119.942 12.7011C119.592 11.8474 119.153 11.1209 118.619 10.5328L118.249 10.8691ZM119.479 12.8906L119.018 13.0849C119.341 13.8494 119.59 14.7705 119.762 15.8543L120.255 15.7764L120.749 15.6984C120.569 14.5557 120.301 13.5529 119.94 12.6963L119.479 12.8906ZM120.255 15.7764L119.762 15.855C119.932 16.9261 120.019 18.1781 120.019 19.6143H120.519H121.019C121.019 18.1402 120.93 16.8337 120.749 15.6977L120.255 15.7764ZM120.519 19.6143H120.019C120.019 21.0504 119.932 22.3024 119.762 23.3735L120.255 23.4521L120.749 23.5308C120.93 22.3949 121.019 21.0883 121.019 19.6143H120.519ZM120.255 23.4521L119.762 23.3735C119.591 24.4474 119.341 25.3639 119.018 26.129L119.479 26.3232L119.94 26.5175C120.301 25.6615 120.569 24.6639 120.749 23.5308L120.255 23.4521ZM119.479 26.3232L119.017 26.1317C118.703 26.8894 118.321 27.5066 117.879 27.9937L118.249 28.3301L118.619 28.6664C119.152 28.0793 119.591 27.3587 119.941 26.5147L119.479 26.3232ZM118.249 28.3301L117.882 27.9904C117.434 28.4735 116.922 28.8562 116.343 29.1413L116.564 29.5898L116.785 30.0384C117.475 29.6985 118.086 29.2413 118.616 28.6698L118.249 28.3301ZM116.564 29.5898L116.343 29.1413C115.757 29.4299 115.102 29.6359 114.374 29.7557L114.455 30.249L114.536 30.7424C115.351 30.6083 116.102 30.3748 116.785 30.0384L116.564 29.5898ZM114.455 30.249L114.367 29.7567C113.628 29.8877 112.828 29.9541 111.964 29.9541V30.4541V30.9541C112.879 30.9541 113.738 30.8838 114.542 30.7414L114.455 30.249ZM111.964 27.2168V27.7168C112.956 27.7168 113.809 27.6011 114.507 27.3504L114.338 26.8799L114.168 26.4093C113.616 26.6079 112.887 26.7168 111.964 26.7168V27.2168ZM114.338 26.8799L114.504 27.3512C115.243 27.0899 115.834 26.6247 116.265 25.9674L115.846 25.6934L115.428 25.4193C115.117 25.8948 114.702 26.2206 114.171 26.4085L114.338 26.8799ZM115.846 25.6934L116.267 25.9641C116.689 25.3082 116.964 24.4565 117.117 23.4384L116.623 23.3643L116.128 23.2901C115.988 24.2251 115.746 24.9262 115.426 25.4226L115.846 25.6934ZM116.623 23.3643L117.117 23.4425C117.278 22.4207 117.357 21.1422 117.357 19.6143H116.857H116.357C116.357 21.1136 116.279 22.3351 116.129 23.286L116.623 23.3643ZM116.857 19.6143H117.357C117.357 18.0767 117.278 16.7933 117.117 15.7714L116.623 15.8496L116.129 15.9278C116.279 16.8786 116.357 18.1049 116.357 19.6143H116.857ZM116.623 15.8496L117.117 15.7762C116.965 14.749 116.69 13.8918 116.267 13.2351L115.846 13.5059L115.426 13.7766C115.745 14.2723 115.988 14.9776 116.128 15.9231L116.623 15.8496ZM115.846 13.5059L116.269 13.2383C115.84 12.5608 115.248 12.0819 114.504 11.8187L114.338 12.29L114.171 12.7614C114.696 12.9474 115.111 13.279 115.424 13.7734L115.846 13.5059ZM114.338 12.29L114.513 11.8219C113.813 11.5594 112.958 11.4385 111.964 11.4385V11.9385V12.4385C112.885 12.4385 113.612 12.5519 114.162 12.7582L114.338 12.29ZM111.964 11.9385V11.4385C110.971 11.4385 110.112 11.5596 109.404 11.821L109.577 12.29L109.75 12.7591C110.311 12.5518 111.044 12.4385 111.964 12.4385V11.9385ZM109.577 12.29L109.41 11.8187C108.666 12.0819 108.075 12.5608 107.646 13.2383L108.068 13.5059L108.49 13.7734C108.803 13.279 109.218 12.9474 109.744 12.7614L109.577 12.29ZM108.068 13.5059L107.648 13.2351C107.226 13.89 106.946 14.7453 106.783 15.7714L107.277 15.8496L107.771 15.9278C107.921 14.9813 108.168 14.2741 108.488 13.7766L108.068 13.5059ZM107.277 15.8496L106.782 15.7762C106.631 16.7959 106.557 18.0776 106.557 19.6143H107.057H107.557C107.557 18.104 107.63 16.8759 107.772 15.9231L107.277 15.8496ZM107.057 19.6143H106.557C106.557 21.1413 106.631 22.4181 106.782 23.4377L107.277 23.3643L107.772 23.2908C107.63 22.3378 107.557 21.1145 107.557 19.6143H107.057ZM107.277 23.3643L106.783 23.4433C106.946 24.4602 107.226 25.31 107.648 25.9641L108.068 25.6934L108.488 25.4226C108.167 24.9244 107.92 24.2214 107.771 23.2853L107.277 23.3643ZM108.068 25.6934L107.65 25.9674C108.08 26.6247 108.671 27.0899 109.41 27.3512L109.577 26.8799L109.744 26.4085C109.213 26.2206 108.798 25.8948 108.486 25.4193L108.068 25.6934ZM109.577 26.8799L109.41 27.3512C110.116 27.601 110.973 27.7168 111.964 27.7168V27.2168V26.7168C111.042 26.7168 110.307 26.608 109.744 26.4085L109.577 26.8799ZM133.494 30L133.02 30.1603L133.135 30.5H133.494V30ZM126.418 9.09668V8.59668H125.721L125.945 9.25698L126.418 9.09668ZM130.432 9.09668L130.908 8.9426L130.796 8.59668H130.432V9.09668ZM136.145 26.7334L135.669 26.8875L135.781 27.2334H136.145V26.7334ZM136.379 26.7334V27.2334H136.743L136.855 26.8871L136.379 26.7334ZM142.078 9.09668V8.59668H141.714L141.602 8.94296L142.078 9.09668ZM146.091 9.09668L146.565 9.25698L146.788 8.59668H146.091V9.09668ZM139.016 30V30.5H139.375L139.49 30.1603L139.016 30ZM133.494 30L133.967 29.8397L126.892 8.93638L126.418 9.09668L125.945 9.25698L133.02 30.1603L133.494 30ZM126.418 9.09668V9.59668H130.432V9.09668V8.59668H126.418V9.09668ZM130.432 9.09668L129.956 9.25076L135.669 26.8875L136.145 26.7334L136.621 26.5793L130.908 8.9426L130.432 9.09668ZM136.145 26.7334V27.2334H136.379V26.7334V26.2334H136.145V26.7334ZM136.379 26.7334L136.855 26.8871L142.553 9.2504L142.078 9.09668L141.602 8.94296L135.904 26.5797L136.379 26.7334ZM142.078 9.09668V9.59668H146.091V9.09668V8.59668H142.078V9.09668ZM146.091 9.09668L145.618 8.93638L138.542 29.8397L139.016 30L139.49 30.1603L146.565 9.25698L146.091 9.09668ZM139.016 30V29.5H133.494V30V30.5H139.016V30ZM152.972 9.09668V8.59668H152.472V9.09668H152.972ZM165.54 9.09668H166.04V8.59668H165.54V9.09668ZM165.54 12.3633V12.8633H166.04V12.3633H165.54ZM156.488 12.3633V11.8633H155.988V12.3633H156.488ZM156.488 17.8564H155.988V18.3564H156.488V17.8564ZM164.075 17.8564H164.575V17.3564H164.075V17.8564ZM164.075 21.0645V21.5645H164.575V21.0645H164.075ZM156.488 21.0645V20.5645H155.988V21.0645H156.488ZM156.488 26.7334H155.988V27.2334H156.488V26.7334ZM165.789 26.7334H166.289V26.2334H165.789V26.7334ZM165.789 30V30.5H166.289V30H165.789ZM152.972 30H152.472V30.5H152.972V30ZM152.972 9.09668V9.59668H165.54V9.09668V8.59668H152.972V9.09668ZM165.54 9.09668H165.04V12.3633H165.54H166.04V9.09668H165.54ZM165.54 12.3633V11.8633H156.488V12.3633V12.8633H165.54V12.3633ZM156.488 12.3633H155.988V17.8564H156.488H156.988V12.3633H156.488ZM156.488 17.8564V18.3564H164.075V17.8564V17.3564H156.488V17.8564ZM164.075 17.8564H163.575V21.0645H164.075H164.575V17.8564H164.075ZM164.075 21.0645V20.5645H156.488V21.0645V21.5645H164.075V21.0645ZM156.488 21.0645H155.988V26.7334H156.488H156.988V21.0645H156.488ZM156.488 26.7334V27.2334H165.789V26.7334V26.2334H156.488V26.7334ZM165.789 26.7334H165.289V30H165.789H166.289V26.7334H165.789ZM165.789 30V29.5H152.972V30V30.5H165.789V30ZM152.972 30H153.472V9.09668H152.972H152.472V30H152.972ZM174.018 9.09668V8.59668H173.518V9.09668H174.018ZM183.422 9.21387L183.349 9.70857L183.359 9.70987L183.422 9.21387ZM184.931 9.59473L184.747 10.0596L184.75 10.0609L184.931 9.59473ZM186.234 10.3564L185.916 10.7422L185.922 10.7469L186.234 10.3564ZM187.245 11.5723L186.81 11.8194L186.814 11.8258L187.245 11.5723ZM187.919 13.3594L187.431 13.4693L187.919 13.3594ZM187.992 17.4902L187.503 17.3848L187.502 17.3922L187.992 17.4902ZM187.582 18.7939L187.128 18.5844L187.124 18.5942L187.582 18.7939ZM186.996 19.79L186.604 19.4793L186.598 19.4878L186.996 19.79ZM186.337 20.5225L186.666 20.8993L186.674 20.8917L186.337 20.5225ZM184.521 21.5039L184.388 21.0218L184.021 21.123V21.5039H184.521ZM184.521 21.5332H184.021V21.6556L184.077 21.7641L184.521 21.5332ZM188.93 30V30.5H189.754L189.373 29.7691L188.93 30ZM184.916 30L184.471 30.227L184.61 30.5H184.916V30ZM181.005 22.3242L181.45 22.0972L181.311 21.8242H181.005V22.3242ZM177.533 22.3242V21.8242H177.033V22.3242H177.533ZM177.533 30V30.5H178.033V30H177.533ZM174.018 30H173.518V30.5H174.018V30ZM184.315 14.0918L183.837 14.2365L183.841 14.2499L184.315 14.0918ZM183.744 13.0811L183.384 13.4277L183.391 13.4346L183.744 13.0811ZM182.851 12.5391L182.692 13.0136L182.704 13.0172L182.851 12.5391ZM177.533 12.3633V11.8633H177.033V12.3633H177.533ZM177.533 19.0137H177.033V19.5137H177.533V19.0137ZM174.018 9.09668V9.59668H181.796V9.09668V8.59668H174.018V9.09668ZM181.796 9.09668V9.59668C182.329 9.59668 182.847 9.63409 183.349 9.70847L183.422 9.21387L183.495 8.71926C182.943 8.63739 182.376 8.59668 181.796 8.59668V9.09668ZM183.422 9.21387L183.359 9.70987C183.857 9.77334 184.319 9.89055 184.747 10.0596L184.931 9.59473L185.115 9.12982C184.604 8.92781 184.061 8.79111 183.485 8.71787L183.422 9.21387ZM184.931 9.59473L184.75 10.0609C185.179 10.2274 185.567 10.4543 185.916 10.7421L186.234 10.3564L186.553 9.97076C186.12 9.61403 185.639 9.33314 185.111 9.12855L184.931 9.59473ZM186.234 10.3564L185.922 10.7469C186.257 11.0145 186.554 11.3685 186.81 11.8194L187.245 11.5723L187.68 11.3251C187.37 10.7799 186.993 10.3234 186.547 9.96601L186.234 10.3564ZM187.245 11.5723L186.814 11.8258C187.076 12.2703 187.284 12.8153 187.431 13.4693L187.919 13.3594L188.407 13.2495C188.242 12.5167 188.001 11.8703 187.676 11.3188L187.245 11.5723ZM187.919 13.3594L187.431 13.4693C187.577 14.1173 187.653 14.8942 187.653 15.8057H188.153H188.653C188.653 14.8422 188.573 13.9882 188.407 13.2495L187.919 13.3594ZM188.153 15.8057H187.653C187.653 16.4029 187.602 16.9282 187.503 17.3848L187.992 17.4902L188.481 17.5957C188.597 17.0562 188.653 16.4585 188.653 15.8057H188.153ZM187.992 17.4902L187.502 17.3922C187.411 17.8489 187.285 18.2451 187.128 18.5844L187.582 18.7939L188.036 19.0035C188.231 18.5811 188.379 18.1081 188.482 17.5883L187.992 17.4902ZM187.582 18.7939L187.124 18.5942C186.972 18.9411 186.798 19.2347 186.604 19.4793L186.996 19.79L187.388 20.1007C187.643 19.779 187.86 19.4085 188.04 18.9937L187.582 18.7939ZM186.996 19.79L186.598 19.4878C186.398 19.7508 186.199 19.9717 186 20.1532L186.337 20.5225L186.674 20.8917C186.924 20.6631 187.164 20.3957 187.394 20.0922L186.996 19.79ZM186.337 20.5225L186.008 20.1457C185.526 20.5661 184.988 20.8567 184.388 21.0218L184.521 21.5039L184.653 21.986C185.401 21.7801 186.073 21.4163 186.666 20.8992L186.337 20.5225ZM184.521 21.5039H184.021V21.5332H184.521H185.021V21.5039H184.521ZM184.521 21.5332L184.077 21.7641L188.486 30.2309L188.93 30L189.373 29.7691L184.964 21.3023L184.521 21.5332ZM188.93 30V29.5H184.916V30V30.5H188.93V30ZM184.916 30L185.362 29.773L181.45 22.0972L181.005 22.3242L180.559 22.5512L184.471 30.227L184.916 30ZM181.005 22.3242V21.8242H177.533V22.3242V22.8242H181.005V22.3242ZM177.533 22.3242H177.033V30H177.533H178.033V22.3242H177.533ZM177.533 30V29.5H174.018V30V30.5H177.533V30ZM174.018 30H174.518V9.09668H174.018H173.518V30H174.018ZM181.767 19.0137V19.5137C182.793 19.5137 183.644 19.1902 184.221 18.4744C184.782 17.779 185.021 16.7925 185.021 15.6006H184.521H184.021C184.021 16.6841 183.8 17.4041 183.443 17.8464C183.103 18.2683 182.576 18.5137 181.767 18.5137V19.0137ZM184.521 15.6006H185.021C185.021 14.9699 184.949 14.41 184.79 13.9337L184.315 14.0918L183.841 14.2499C183.956 14.5939 184.021 15.0398 184.021 15.6006H184.521ZM184.315 14.0918L184.794 13.9471C184.648 13.4656 184.421 13.0512 184.098 12.7275L183.744 13.0811L183.391 13.4346C183.575 13.6187 183.728 13.8781 183.837 14.2365L184.315 14.0918ZM183.744 13.0811L184.105 12.7345C183.799 12.4165 183.426 12.1921 182.997 12.0609L182.851 12.5391L182.704 13.0172C182.978 13.1009 183.201 13.2378 183.384 13.4276L183.744 13.0811ZM182.851 12.5391L183.009 12.0647C182.599 11.9281 182.154 11.8633 181.679 11.8633V12.3633V12.8633C182.063 12.8633 182.399 12.9157 182.692 13.0134L182.851 12.5391ZM181.679 12.3633V11.8633H177.533V12.3633V12.8633H181.679V12.3633ZM177.533 12.3633H177.033V19.0137H177.533H178.033V12.3633H177.533ZM177.533 19.0137V19.5137H181.767V19.0137V18.5137H177.533V19.0137Z" fill="white" mask="url(#path-4-outside-1_65_130)"/>
<defs>
<clipPath id="clip0_65_130">
<rect width="38" height="33" fill="white" transform="translate(0 2)"/>
</clipPath>
</defs>
</svg>
